<svg xmlns="http://www.w3.org/2000/svg" version="1.1" xmlns:xlink="http://www.w3.org/1999/xlink"
        xmlns:svgjs="http://svgjs.dev/svgjs" width="1000" height="818" viewBox="0 0 1000 818">
        <g transform="matrix(1,0,0,1,-1.2121212121212466,-1.441984484791078)"><svg viewBox="0 0 450 162"
                        data-background-color="#000000" preserveAspectRatio="xMidYMid meet" height="818" width="2000"
                        xmlns="http://www.w3.org/2000/svg" xmlns:xlink="http://www.w3.org/1999/xlink">
                        <mask id="637ecdaa-6ef8-4a11-a683-cb94bb69ea78">
                                <g id="SvgjsG6550"><svg>
                                                <g><svg viewBox="0 0 500 270" height="161.428847221183" width="395.52">
                                                                <g
                                                                        transform="matrix(1,0,0,1,264.46774678271385,76.12265953237156)">
                                                                        <svg viewBox="0 0 397.4975999999999 117.93141746312939"
                                                                                height="117.93141746312939"
                                                                                width="397.4975999999999">
                                                                                <g id="SvgjsG6549"><svg
                                                                                                viewBox="0 0 397.4975999999999 117.93141746312939"
                                                                                                height="117.93141746312939"
                                                                                                width="397.4975999999999"
                                                                                                id="SvgjsSvg6548">
                                                                                                <g></g>
                                                                                                <g
                                                                                                        transform="matrix(1,0,0,1,0.9887999999999693,0)">
                                                                                                        <svg viewBox="0 0 395.52 79.69564878561953"
                                                                                                                height="79.69564878561953"
                                                                                                                width="395.52">
                                                                                                                <g
                                                                                                                        transform="matrix(1,0,0,1,0,0)">
                                                                                                                        <svg width="395.52"
                                                                                                                                viewBox="2.0181819052480003 -33.9 223.561818094752 45.05"
                                                                                                                                height="79.69564878561953"
                                                                                                                                data-palette-color="url(#ed9ccf18-bac4-407e-9446-80dda422e958)"></svg>
                                                                                                                </g>
                                                                                                        </svg>
                                                                                                </g>
                                                                                                <g
                                                                                                        transform="matrix(1,0,0,1,0,103.81549162345877)">
                                                                                                        <svg viewBox="0 0 232.209792 14.115925839670624"
                                                                                                                height="14.115925839670624"
                                                                                                                width="232.209792">
                                                                                                                <g
                                                                                                                        transform="matrix(1,0,0,1,0,0)">
                                                                                                                        <svg width="232.209792"
                                                                                                                                viewBox="1 -31.7 619.25 37.65"
                                                                                                                                height="14.115925839670624"
                                                                                                                                data-palette-color="url(#6dca1679-f2e2-4010-b016-ea7544c0b47a)"></svg>
                                                                                                                </g>
                                                                                                        </svg>
                                                                                                </g>
                                                                                        </svg></g>
                                                                        </svg>
                                                                </g>
                                                                <g><svg viewBox="0 0 245.65351679999992 270.1767365278725"
                                                                                height="270.1767365278725"
                                                                                width="245.65351679999992">
                                                                                <g><svg xmlns="http://www.w3.org/2000/svg"
                                                                                                xmlns:xlink="http://www.w3.org/1999/xlink"
                                                                                                version="1.0" x="0"
                                                                                                y="0"
                                                                                                viewBox="2 0 12.883127534945315 14.169230707565026"
                                                                                                style="enable-background:new 0 0 16 16;"
                                                                                                xml:space="preserve"
                                                                                                height="270.1767365278725"
                                                                                                width="245.65351679999992"
                                                                                                class="icon-icon-0"
                                                                                                data-fill-palette-color="accent"
                                                                                                id="SvgjsSvg6547">
                                                                                                <path d="M10.216 14.068A0.295 0.295 0 0 1 9.772 14.069L7.003 10.985A0.35 0.35 0 0 1 7.014 10.506L7.489 10.03A0.326 0.326 0 0 1 7.953 10.034L9.758 11.9A0.31 0.31 0 0 0 10.212 11.893L13.636 8.141A0.335 0.335 0 0 1 14.106 8.119L14.526 8.449C14.984 8.907 15.02 8.955 14.526 9.449z"
                                                                                                        fill="white">
                                                                                                </path>
                                                                                                <path d="M7.5 2C7 2 7 3 7 3H8S8 2 7.5 2"
                                                                                                        fill="white">
                                                                                                </path>
                                                                                                <path d="M12 2H10C9.914 1 9 0 7.5 0S5.086 1 5 2H3S2 2 2 3V13C2 14 3 14 3 14H8.628L6.128 11.515C5.708 11.054 5.937 10.463 6.378 10.023L7.128 9.276C7.345 9.059 7.572 9.028 7.878 9.028 8.187 9.028 8.663 9.307 8.878 9.53L10.023 10.78 13 7.571V3C13 2 12 2 12 2M4.5 8H4S3.5 8 3.5 7.5 4 7 4 7H4.5S5 7 5 7.5 4.5 8 4.5 8M4.5 6H4S3.5 6 3.5 5.5 4 5 4 5H4.5S5 5 5 5.5 4.5 6 4.5 6M11 8H6.5S6 8 6 7.5 6.5 7 6.5 7H11S11.5 7 11.5 7.5 11 8 11 8M11 6H6.5S6 6 6 5.5 6.5 5 6.5 5H11S11.5 5 11.5 5.5 11 6 11 6M3 4S3 3 4 3H6S6 1.062 7.5 1.062 9.027 3 9 3H11C12 3 12 4 12 4z"
                                                                                                        fill="white">
                                                                                                </path>
                                                                                        </svg></g>
                                                                        </svg></g>
                                                        </svg></g>
                                        </svg>
                                        <rect width="395.52" height="161.428847221183" fill="black" stroke="none"
                                                visibility="hidden">
                                        </rect>
                                </g>
                        </mask>
                        <rect width="395.52" height="161.428847221183" fill="#ffffff"
                                mask="url(#637ecdaa-6ef8-4a11-a683-cb94bb69ea78)" data-fill-palette-color="accent">
                        </rect>
                </svg>
        </g>
</svg>